<svg width="28" height="28" viewBox="0 0 28 28" fill="none" xmlns="http://www.w3.org/2000/svg">
<rect width="28" height="28" rx="8" fill="#113264"/>
<path d="M13.6923 10.8356C13.8357 10.6103 14.1645 10.6103 14.3078 10.8356L14.7225 11.4872C15.1811 12.2078 15.7923 12.8189 16.5129 13.2775L17.1645 13.6922C17.3897 13.8356 17.3897 14.1644 17.1645 14.3077L16.5129 14.7224C15.7923 15.181 15.1811 15.7922 14.7225 16.5127L14.3078 17.1644C14.1645 17.3896 13.8357 17.3896 13.6923 17.1644L13.2776 16.5127C12.819 15.7922 12.2079 15.181 11.4873 14.7224L10.8357 14.3077C10.6104 14.1644 10.6104 13.8356 10.8357 13.6922L11.4873 13.2775C12.2079 12.8189 12.819 12.2078 13.2776 11.4872L13.6923 10.8356Z" stroke="#EDF1FF" stroke-linejoin="round"/>
<circle cx="13.9999" cy="14" r="6.66667" stroke="#EDF1FF" stroke-linejoin="round"/>
</svg>
