<svg width="513" height="670" viewBox="0 0 513 670" fill="none" xmlns="http://www.w3.org/2000/svg">
<path d="M372.595 12.2745C397.396 2.81805 437.26 -4.59145 463.226 3.38485C481.171 8.97064 496.143 21.4968 504.809 38.1759C513.685 55.2101 515.426 75.0753 509.648 93.3936C503.817 111.746 490.845 126.982 473.659 135.668C465.241 140.051 456.053 142.771 446.605 143.676C433.644 144.922 405.992 141.855 391.635 140.757C373.462 139.366 359.423 139.443 341.375 139.092C336.745 139.213 325.057 139.343 321.069 140.219C302.509 140.558 279.52 146.64 262.374 153.646C251.287 158.733 244.283 163.716 235.252 171.718C248.07 150.754 257.272 120.704 271.373 100.405L271.374 100.404C272.352 97.7652 277.259 90.3717 278.879 87.878C290.577 69.8646 313.706 44.0216 332.466 33.2452H332.467C333.341 32.0362 343.126 26.1552 344.867 25.0831C353.905 20.3145 363.061 15.9078 372.595 12.2745ZM323.895 138.784C321.932 138.976 319.995 139.163 318.151 139.275C319.995 139.163 321.932 138.976 323.895 138.784ZM327.677 138.43C327.568 138.439 327.459 138.449 327.351 138.458C327.459 138.449 327.568 138.439 327.677 138.43ZM334.057 138.111C332.84 138.108 331.584 138.156 330.31 138.233C331.584 138.156 332.84 138.108 334.057 138.111Z" fill="#085CF0"/>
<path d="M334.952 23.3589L335.373 23.4586C335.254 23.8794 319.404 34.2 317.545 35.5357C253.462 81.6331 241.65 157.919 199.349 219.449C165.288 268.994 75.318 316.853 21.7497 268.356C1.45175 248.527 -5.19316 219.241 4.51498 192.48C14.3805 165.283 41.9501 146.622 70.5696 145.421C87.3209 144.718 104.425 147.434 121.272 146.063C144.24 144.42 163.674 140.204 184.484 130.108C216.783 114.44 238.815 89.397 265.45 66.5983C286.94 48.2035 309.343 35.0368 334.952 23.3589Z" fill="url(#paint0_linear_408_2)"/>
<path d="M292.968 254.171C312.475 246.734 343.829 240.906 364.252 247.179C378.367 251.573 390.143 261.426 396.959 274.545C403.94 287.943 405.31 303.567 400.766 317.975C396.179 332.41 385.976 344.393 372.459 351.225C365.838 354.673 358.61 356.812 351.18 357.524C340.985 358.504 319.236 356.092 307.943 355.228C295.437 354.271 285.419 354.198 273.601 354.009L268.412 353.919C264.771 354.013 255.576 354.117 252.439 354.805C237.841 355.072 219.76 359.856 206.273 365.366C206.136 365.055 206.019 364.713 205.921 364.342C206.019 364.712 206.135 365.054 206.272 365.365C197.552 369.366 192.044 373.286 184.94 379.58C195.023 363.091 202.261 339.455 213.353 323.489C213.262 326.475 210.365 329.261 210.254 330.847C209.764 337.821 204.349 355.587 205.741 363.518C204.35 355.587 209.764 337.822 210.254 330.848C210.365 329.262 213.262 326.476 213.353 323.49C214.121 321.414 217.982 315.599 219.256 313.637C228.457 299.469 246.65 279.142 261.405 270.667C261.317 270.917 261.134 271.206 260.874 271.53C261.135 271.205 261.317 270.916 261.405 270.666C262.093 269.715 269.79 265.089 271.159 264.246C278.268 260.495 285.469 257.029 292.968 254.171ZM239.288 291.503C239.225 291.784 239.2 292.054 239.219 292.311C240.499 309.5 243.563 327.165 245.345 344.508C245.411 345.151 245.475 345.793 245.537 346.434C245.786 349 246.006 351.558 246.184 354.105C246.387 354.117 246.593 354.128 246.803 354.134C246.593 354.128 246.387 354.117 246.184 354.105C244.759 333.724 240.737 312.683 239.22 292.311C239.201 292.054 239.225 291.784 239.288 291.503ZM262.656 353.147C259.124 353.137 255.183 353.67 251.57 353.962C253.015 353.845 254.513 353.69 256.016 353.546C256.517 353.499 257.018 353.452 257.519 353.409C259.02 353.279 260.51 353.176 261.943 353.153C262.182 353.149 262.42 353.147 262.655 353.148L262.656 353.147ZM264.72 353.225C265.833 353.311 266.884 353.474 267.846 353.744L267.259 353.594C266.262 353.366 265.182 353.238 264.045 353.182L264.72 353.225ZM240.713 288.835C240.302 289.368 239.965 289.884 239.715 290.375C239.965 289.884 240.302 289.368 240.713 288.835ZM253.7 277.606C252.395 278.601 251.023 279.641 249.663 280.698C248.983 281.226 248.307 281.759 247.645 282.292C247.163 282.678 246.69 283.067 246.228 283.453C249.241 280.94 252.722 278.378 255.597 276.152L253.7 277.606ZM258.467 273.849C258.071 274.184 257.645 274.534 257.194 274.895C257.645 274.534 258.071 274.184 258.467 273.849ZM260.314 272.161C259.994 272.493 259.612 272.848 259.183 273.229C259.612 272.848 259.994 272.493 260.314 272.161Z" fill="#085CF0"/>
<path d="M263.102 263.431L263.432 263.509C263.339 263.839 250.884 271.936 249.424 272.983C199.069 309.147 189.787 368.993 156.548 417.264C129.784 456.132 59.089 493.678 16.9966 455.632C1.04713 440.076 -4.17424 417.101 3.45411 396.107C11.2061 374.771 32.8695 360.131 55.3578 359.189C68.5205 358.637 81.9601 360.768 95.1981 359.693C113.246 358.404 128.516 355.096 144.868 347.176C170.248 334.884 187.56 315.238 208.489 297.352C225.375 282.921 242.978 272.592 263.102 263.431Z" fill="url(#paint1_linear_408_2)"/>
<path d="M463.81 669.129C457.002 669.129 450.648 667.37 444.747 663.852C438.96 660.335 434.251 655.229 430.62 648.534C427.103 641.839 425.344 633.726 425.344 624.194C425.344 614.55 427.103 606.323 430.62 599.515C434.251 592.706 439.074 587.487 445.088 583.856C451.215 580.225 457.966 578.409 465.342 578.409C470.108 578.409 474.817 579.487 479.469 581.643C484.235 583.799 488.206 586.693 491.384 590.324V580.622H513V666.576H491.384V652.108C488.887 656.761 485.256 660.789 480.49 664.193C475.725 667.483 470.165 669.129 463.81 669.129ZM469.257 647.513C473.115 647.513 476.689 646.491 479.98 644.449C483.384 642.406 486.164 639.513 488.32 635.768C490.476 632.024 491.497 627.599 491.384 622.492V610.238C488.32 606.947 484.972 604.337 481.341 602.408C477.824 600.479 473.966 599.515 469.767 599.515C465.229 599.515 461.314 600.706 458.023 603.089C454.846 605.358 452.35 608.365 450.534 612.11C448.719 615.854 447.811 619.883 447.811 624.194C447.811 628.393 448.719 632.308 450.534 635.939C452.35 639.456 454.846 642.293 458.023 644.449C461.314 646.491 465.058 647.513 469.257 647.513Z" fill="#060B35"/>
<path d="M388.409 669.129C383.303 669.129 378.651 667.994 374.452 665.725C370.367 663.455 367.133 660.278 364.75 656.193C362.368 651.995 361.176 647.059 361.176 641.385V598.664H346.879V587.6C352.439 585.671 356.978 582.097 360.495 576.877C364.126 571.658 367.304 565.133 370.027 557.304H382.792V580.622H408.664V598.664H382.792V635.769C382.792 639.627 383.757 642.69 385.686 644.96C387.728 647.116 390.678 648.194 394.536 648.194C397.941 648.194 400.891 647.683 403.387 646.662C405.884 645.64 408.096 644.562 410.025 643.428V661.81C407.983 663.966 405.089 665.725 401.345 667.086C397.714 668.448 393.402 669.129 388.409 669.129Z" fill="#060B35"/>
<path d="M271.478 646.321V621.642L310.626 580.622H336.837L271.478 646.321ZM253.947 666.576V544.028H275.563V666.576H253.947ZM311.477 666.576L281.521 625.897L295.137 611.089L338.71 666.576H311.477Z" fill="#060B35"/>
<path d="M178.205 669.129C171.397 669.129 165.042 667.37 159.142 663.852C153.355 660.335 148.646 655.229 145.015 648.534C141.497 641.839 139.738 633.726 139.738 624.194C139.738 614.55 141.497 606.323 145.015 599.515C148.646 592.706 153.468 587.487 159.482 583.856C165.61 580.225 172.361 578.409 179.737 578.409C184.502 578.409 189.211 579.487 193.864 581.643C198.629 583.799 202.601 586.693 205.778 590.324V580.622H227.394V666.576H205.778V652.108C203.282 656.761 199.651 660.789 194.885 664.193C190.119 667.483 184.559 669.129 178.205 669.129ZM183.651 647.513C187.509 647.513 191.084 646.491 194.374 644.449C197.778 642.406 200.558 639.513 202.714 635.768C204.87 632.024 205.892 627.599 205.778 622.492V610.238C202.714 606.947 199.367 604.337 195.736 602.408C192.218 600.479 188.36 599.515 184.162 599.515C179.623 599.515 175.708 600.706 172.418 603.089C169.241 605.358 166.744 608.365 164.929 612.11C163.113 615.854 162.205 619.883 162.205 624.194C162.205 628.393 163.113 632.308 164.929 635.939C166.744 639.456 169.241 642.293 172.418 644.449C175.708 646.491 179.453 647.513 183.651 647.513Z" fill="#060B35"/>
<path d="M74.8906 666.576V580.622H96.5067V666.576H74.8906ZM96.5067 618.578V596.792C99.457 591.685 102.918 587.43 106.889 584.026C110.974 580.622 115.57 578.92 120.676 578.92C123.853 578.92 126.633 579.431 129.016 580.452V604.791C127.314 603.77 125.498 603.032 123.569 602.579C121.754 602.011 119.768 601.727 117.612 601.727C112.733 601.727 108.591 603.373 105.187 606.663C101.897 609.841 99.0031 613.812 96.5067 618.578Z" fill="#060B35"/>
<path d="M13.1058 666.576V572.963C13.1058 566.268 14.4675 560.595 17.1908 555.943C20.0275 551.29 23.7153 547.716 28.2541 545.22C32.9064 542.723 37.8991 541.475 43.2322 541.475C46.8633 541.475 50.0405 541.872 52.7637 542.667C55.6005 543.461 57.9834 544.539 59.9124 545.9V563.942C58.2103 562.921 56.2246 562.127 53.9552 561.559C51.7992 560.879 49.4731 560.595 46.9768 560.708C43.5726 560.708 40.6791 561.786 38.2963 563.942C35.9134 565.985 34.7219 569.446 34.7219 574.325V666.576H13.1058ZM0 598.664V580.622H57.0189V598.664H0Z" fill="#060B35"/>
<defs>
<linearGradient id="paint0_linear_408_2" x1="167.746" y1="23.3589" x2="167.746" y2="288.55" gradientUnits="userSpaceOnUse">
<stop stop-color="#085CF0"/>
<stop offset="1" stop-color="#0A2677"/>
</linearGradient>
<linearGradient id="paint1_linear_408_2" x1="131.716" y1="263.431" x2="131.716" y2="471.474" gradientUnits="userSpaceOnUse">
<stop stop-color="#085CF0"/>
<stop offset="1" stop-color="#0A2677"/>
</linearGradient>
</defs>
</svg>
