<svg width="624" height="624" viewBox="0 0 624 624" fill="none" xmlns="http://www.w3.org/2000/svg">
<rect width="624" height="624" fill="white"/>
<path d="M417.854 107.237C440.558 98.5802 477.052 91.7966 500.822 99.0985C517.251 104.212 530.957 115.68 538.891 130.949C547.016 146.543 548.609 164.728 543.32 181.498C537.982 198.299 526.107 212.248 510.374 220.199C502.668 224.212 494.256 226.701 485.607 227.53C473.742 228.671 448.427 225.863 435.284 224.857C420.727 223.743 409.068 223.658 395.312 223.438L389.273 223.333C385.035 223.443 374.334 223.564 370.684 224.365C353.692 224.676 332.647 230.244 316.95 236.657C306.801 241.315 300.389 245.876 292.121 253.201C303.856 234.01 312.279 206.5 325.188 187.917L325.189 187.916C326.085 185.5 330.577 178.732 332.06 176.449C342.769 159.958 363.944 136.299 381.118 126.434L381.216 126.319C382.468 124.997 390.925 119.913 392.47 118.962C400.743 114.596 409.126 110.563 417.854 107.237ZM376.595 222.739C375.43 222.84 374.26 222.955 373.101 223.068C374.26 222.955 375.43 222.84 376.595 222.739ZM380.905 222.463H380.906H380.905Z" fill="#085CF0"/>
<path d="M383.392 117.384L383.777 117.476C383.669 117.861 369.159 127.309 367.457 128.532C308.791 170.732 297.977 240.569 259.252 296.897C228.071 342.254 145.707 386.067 96.6672 341.67C78.0852 323.518 72.002 296.707 80.8895 272.208C89.921 247.311 115.16 230.227 141.36 229.128C156.695 228.484 172.353 230.97 187.776 229.716C208.803 228.212 226.593 224.351 245.645 215.109C275.213 200.766 295.382 177.84 319.766 156.968C339.439 140.129 359.948 128.075 383.392 117.384Z" fill="url(#paint0_linear_563_163)"/>
<path d="M344.957 328.685C362.815 321.876 391.52 316.541 410.216 322.284C423.138 326.306 433.917 335.325 440.157 347.335C446.548 359.6 447.802 373.904 443.643 387.094C439.444 400.309 430.103 411.28 417.729 417.534C411.667 420.69 405.051 422.648 398.248 423.299C388.915 424.197 369.005 421.989 358.667 421.198C345.582 420.197 335.473 420.252 322.478 419.999C320.953 419.482 319.147 419.299 317.207 419.294C319.147 419.299 320.952 419.483 322.477 420C319.143 420.087 310.726 420.181 307.854 420.811C294.49 421.056 277.937 425.435 265.591 430.479C265.309 429.843 265.124 429.066 265.016 428.176C265.124 429.065 265.309 429.842 265.591 430.478C257.608 434.141 252.564 437.729 246.062 443.491C255.292 428.396 261.918 406.758 272.072 392.141C272.046 392.996 271.769 393.833 271.397 394.624L271.608 394.144C271.87 393.498 272.052 392.826 272.072 392.142C272.776 390.242 276.309 384.919 277.476 383.124C285.899 370.153 302.555 351.544 316.062 343.785C315.642 344.975 312.938 347.131 309.635 349.658C312.939 347.131 315.643 344.975 316.063 343.785C316.692 342.915 323.739 338.679 324.992 337.907C331.5 334.473 338.093 331.301 344.957 328.685ZM265.049 422.946C265 423.489 264.965 424.018 264.938 424.531C264.964 424.018 265 423.489 265.049 422.947V422.946ZM268.969 401.12C268.157 406.418 265.922 415.034 265.156 421.881L265.289 420.786C266.153 414.137 268.2 406.14 268.969 401.121V401.12ZM307.18 351.532C301.608 355.787 295.531 360.616 295.752 363.6C297.141 382.25 300.823 401.512 302.127 420.171C302.499 420.193 302.884 420.204 303.278 420.207C302.884 420.204 302.5 420.192 302.128 420.17C300.824 401.512 297.142 382.25 295.753 363.6C295.532 360.616 301.609 355.786 307.181 351.531L307.18 351.532ZM305.72 420.132C305.094 420.17 304.483 420.196 303.893 420.205C304.483 420.196 305.094 420.17 305.72 420.132ZM308.28 419.931C307.453 420.007 306.639 420.075 305.848 420.125C306.639 420.075 307.453 420.007 308.28 419.931ZM312.245 419.556C311.001 419.667 309.751 419.794 308.527 419.909C309.751 419.794 311.001 419.667 312.245 419.556ZM314.509 419.381C313.882 419.419 313.249 419.469 312.613 419.523C313.249 419.469 313.882 419.419 314.509 419.381ZM317.203 419.294C316.354 419.291 315.479 419.323 314.59 419.376C315.479 419.323 316.354 419.291 317.203 419.294ZM271.165 395.091C270.359 396.634 269.299 397.971 269.235 398.879C269.205 399.313 269.154 399.793 269.085 400.312L269.175 399.564C269.2 399.325 269.22 399.097 269.235 398.88C269.299 397.972 270.359 396.635 271.165 395.092V395.091Z" fill="#085CF0"/>
<path d="M317.615 337.161L317.918 337.232C317.833 337.534 306.431 344.947 305.094 345.906C258.996 379.012 250.499 433.799 220.07 477.989C195.569 513.572 130.85 547.944 92.3156 513.113C77.7145 498.873 72.9345 477.84 79.918 458.621C87.0146 439.088 106.847 425.686 127.434 424.824C139.484 424.319 151.787 426.269 163.906 425.285C180.428 424.105 194.408 421.077 209.377 413.826C232.612 402.574 248.46 384.588 267.62 368.215C283.078 355.004 299.193 345.548 317.615 337.161Z" fill="url(#paint1_linear_563_163)"/>
<defs>
<linearGradient id="paint0_linear_563_163" x1="230.321" y1="117.384" x2="230.321" y2="360.157" gradientUnits="userSpaceOnUse">
<stop stop-color="#085CF0"/>
<stop offset="1" stop-color="#0A2677"/>
</linearGradient>
<linearGradient id="paint1_linear_563_163" x1="197.337" y1="337.161" x2="197.337" y2="527.617" gradientUnits="userSpaceOnUse">
<stop stop-color="#085CF0"/>
<stop offset="1" stop-color="#0A2677"/>
</linearGradient>
</defs>
</svg>
