<svg width="28" height="28" viewBox="0 0 28 28" fill="none" xmlns="http://www.w3.org/2000/svg">
<rect width="28" height="28" rx="8" fill="#582D1D"/>
<path d="M16.3334 13.3333C16.3334 12.0447 15.2887 11 14.0001 11C12.7114 11 11.6667 12.0447 11.6667 13.3333C11.6667 14.622 12.7114 15.6667 14.0001 15.6667C15.2887 15.6667 16.3334 14.622 16.3334 13.3333Z" stroke="#FFD19A" stroke-linecap="round" stroke-linejoin="round"/>
<path d="M16.3221 13.5666C16.5367 13.6317 16.7644 13.6667 17.0003 13.6667C18.289 13.6667 19.3336 12.622 19.3336 11.3333C19.3336 10.0447 18.289 9 17.0003 9C15.7903 9 14.7955 9.92094 14.6785 11.1001" stroke="#FFD19A" stroke-linecap="round" stroke-linejoin="round"/>
<path d="M13.3219 11.1001C13.2049 9.92094 12.21 9 11.0001 9C9.71142 9 8.66675 10.0447 8.66675 11.3333C8.66675 12.622 9.71142 13.6667 11.0001 13.6667C11.236 13.6667 11.4636 13.6317 11.6783 13.5666" stroke="#FFD19A" stroke-linecap="round" stroke-linejoin="round"/>
<path d="M20.6667 17C20.6667 15.159 19.025 13.6666 17 13.6666" stroke="#FFD19A" stroke-linecap="round" stroke-linejoin="round"/>
<path d="M17.6668 19C17.6668 17.159 16.0252 15.6666 14.0002 15.6666C11.9751 15.6666 10.3335 17.159 10.3335 19" stroke="#FFD19A" stroke-linecap="round" stroke-linejoin="round"/>
<path d="M11.0002 13.6666C8.97512 13.6666 7.3335 15.159 7.3335 17" stroke="#FFD19A" stroke-linecap="round" stroke-linejoin="round"/>
</svg>
