<svg width="28" height="28" viewBox="0 0 28 28" fill="none" xmlns="http://www.w3.org/2000/svg">
<rect width="28" height="28" rx="8" fill="#402060"/>
<path d="M11.3333 10C13.5424 10 15.3333 9.40309 15.3333 8.66671C15.3333 7.93033 13.5424 7.33337 11.3333 7.33337C9.12411 7.33337 7.33325 7.93033 7.33325 8.66671C7.33325 9.40309 9.12411 10 11.3333 10Z" stroke="#EAD5F9"/>
<path d="M16.3333 12C13.9401 12 12 13.9401 12 16.3333C12 18.7265 13.9401 20.6667 16.3333 20.6667C18.7265 20.6667 20.6667 18.7266 20.6667 16.3333C20.6667 13.9401 18.7265 12 16.3333 12Z" stroke="#EAD5F9" stroke-linecap="round" stroke-linejoin="round"/>
<path d="M16.3333 18.6667C16.4031 18.6667 16.4679 18.6337 16.5977 18.5677L17.6409 18.0376C18.1025 17.803 18.3333 17.6857 18.3333 17.5V15.1667M16.3333 18.6667C16.2635 18.6667 16.1986 18.6337 16.0688 18.5677L15.0257 18.0376C14.5641 17.803 14.3333 17.6857 14.3333 17.5V15.1667M16.3333 18.6667V16.3333M18.3333 15.1667C18.3333 14.9809 18.1025 14.8637 17.6409 14.6291L16.5977 14.0989C16.4679 14.033 16.4031 14 16.3333 14C16.2635 14 16.1986 14.033 16.0688 14.0989L15.0257 14.6291C14.5641 14.8637 14.3333 14.9809 14.3333 15.1667M18.3333 15.1667C18.3333 15.3524 18.1025 15.4697 17.6409 15.7043L16.5977 16.2344C16.4679 16.3003 16.4031 16.3333 16.3333 16.3333M14.3333 15.1667C14.3333 15.3524 14.5641 15.4697 15.0257 15.7043L16.0688 16.2344C16.1986 16.3003 16.2635 16.3333 16.3333 16.3333" stroke="#EAD5F9" stroke-linejoin="round"/>
<path d="M7.33325 8.66663V11.3478V14.0289C7.33325 14.4981 8.11881 15.0885 10.0865 15.3333M7.40476 11.6984C8.20766 12.4064 9.63913 12.7067 11.169 12.7067M15.3255 8.74752V10.0906" stroke="#EAD5F9" stroke-linecap="round" stroke-linejoin="round"/>
</svg>
