<svg width="28" height="28" viewBox="0 0 28 28" fill="none" xmlns="http://www.w3.org/2000/svg">
<rect width="28" height="28" rx="8" fill="#193B2D"/>
<path d="M20.6667 14C20.6667 17.6819 17.6819 20.6667 14 20.6667C10.3181 20.6667 7.33337 17.6819 7.33337 14C7.33337 10.3181 10.3181 7.33337 14 7.33337C17.6819 7.33337 20.6667 10.3181 20.6667 14Z" stroke="#C4E8D1"/>
<path d="M15.8068 12.7074C15.7408 12.199 15.157 11.3775 14.1072 11.3775C12.8875 11.3775 12.3743 12.053 12.2701 12.3908C12.1077 12.8426 12.1402 13.7714 13.5698 13.8727C15.357 13.9994 16.0729 14.2103 15.9818 15.304C15.8907 16.3977 14.8945 16.634 14.1072 16.6086C13.3199 16.5833 12.0318 16.2217 11.9818 15.2489M13.9823 10.6654V11.3799M13.9823 16.6021V17.3321" stroke="#C4E8D1" stroke-linecap="round"/>
</svg>
